<svg version="1.2" xmlns="http://www.w3.org/2000/svg" viewBox="0 0 639 640" width="639" height="640">
	<title>logoPet</title>
	<style>
		.s0 { fill: #35befb } 
	</style>
	<path id="Forma 1" fill-rule="evenodd" class="s0" d="m626.9 318.3c0 21.7-16 38.7-34.1 38.7h-34.2l0.7 192.7c0.2 42.7-30.4 77.3-68.3 77.3h-342.2c-37.7 0-68.3-34.5-68.3-77v-193h-34.3c-19.2 0-34.2-16.9-34.2-38.7 0-10.8 3.2-20.4 10.7-28.8l273.8-268.9c7.5-8.4 16-9.6 23.5-9.6 7.5 0 16 2.4 22.4 8.4l113.9 112.7v-44.1c0-21.3 15.2-38.5 34.1-38.5h34.2c18.9 0 34.2 17.2 34.2 38.5v145.5l56.4 55.8c8.5 8.5 12.8 18.1 11.7 29zm-397.7-158.6c-25.6 9.7-37.1 49.3-25.8 88.5 11.3 39.2 41.3 63.1 66.9 53.4 25.5-9.6 37.1-49.2 25.8-88.4-11.3-39.3-41.3-63.2-66.9-53.5zm-95.3 119.6c-19.4 12.8-22.9 47.3-8 76.9 14.9 29.6 42.8 43.3 62.2 30.5 19.4-12.8 23-47.3 8.1-76.9-15-29.6-42.9-43.3-62.3-30.5zm33.4 243.6v1.4c0 23.6 16.6 42.7 37 42.7 9.1 0 18.2-1.3 27-3.8l69.7-20.1c12.1-3.5 24.8-3.5 36.9 0l69.7 20.1c8.8 2.5 17.9 3.8 27 3.8 20.4 0 37-19.1 37-42.7v-1.4c0-9.6-1.3-19.1-4.1-27.9-41.6-129.2-115.3-162-148-162-32.8 0-106.5 32.8-148 162-2.9 8.8-4.2 18.3-4.2 27.9zm345.7-166.7c15-29.6 11.4-64.1-8.1-76.9-19.4-12.8-47.2 0.9-62.2 30.5-14.9 29.6-11.3 64.1 8.1 76.9 19.4 12.8 47.3-0.9 62.2-30.5zm-83.8-108c11.3-39.2-0.2-78.8-25.8-88.5-25.6-9.7-55.6 14.2-66.9 53.5-11.3 39.2 0.2 78.8 25.8 88.4 25.6 9.7 55.6-14.2 66.9-53.4z"/>
</svg>